<svg width="488" height="335" viewBox="0 0 488 335" fill="none" xmlns="http://www.w3.org/2000/svg">
<path d="M402.631 90.46C400.401 88.87 398.171 87.34 395.941 85.86C393.711 84.38 391.471 82.96 389.241 81.58C387.001 80.2 384.771 78.87 382.531 77.59C380.291 76.31 378.061 75.06 375.831 73.86C373.601 72.66 371.371 71.49 369.151 70.36C366.931 69.23 364.721 68.13 362.511 67.06C360.301 65.99 358.101 64.95 355.921 63.94C353.731 62.93 351.551 61.94 349.391 60.97C347.221 60 345.071 59.05 342.931 58.12C340.791 57.19 338.661 56.27 336.551 55.36C334.441 54.45 332.341 53.55 330.271 52.66C328.191 51.77 326.141 50.88 324.101 49.99C322.061 49.1 320.041 48.22 318.051 47.33C316.051 46.44 314.081 45.55 312.131 44.64C310.181 43.73 308.261 42.83 306.361 41.9C304.461 40.98 302.591 40.04 300.751 39.08C280.611 28.63 261.421 20.49 243.201 14.41C224.981 8.32998 207.721 4.31998 191.451 2.10998C175.181 -0.100019 159.901 -0.49002 145.621 0.65998C131.341 1.81998 118.071 4.52998 105.831 8.53998C93.5908 12.55 82.3607 17.86 72.1907 24.22C62.0207 30.58 52.8807 37.98 44.8207 46.18C36.7507 54.38 29.7507 63.37 23.8407 72.9C17.9207 82.43 13.0907 92.5 9.36073 102.85C5.63073 113.2 3.01074 123.84 1.50074 134.5C0.000740409 145.17 -0.379255 155.86 0.380745 166.34C1.14075 176.81 3.05074 187.07 6.12074 196.84C9.19074 206.61 13.4207 215.91 18.8307 224.48C24.2407 233.05 30.8408 240.88 38.6408 247.73C46.4408 254.58 55.4408 260.44 65.6508 265.07C75.8708 269.7 87.3107 273.08 99.9907 274.98C112.671 276.87 126.591 277.28 141.771 275.93C146.211 275.54 150.551 275.14 154.811 274.75C159.071 274.36 163.251 273.98 167.361 273.61C171.471 273.24 175.501 272.89 179.481 272.55C183.451 272.22 187.371 271.91 191.231 271.63C195.091 271.35 198.901 271.1 202.671 270.89C206.441 270.68 210.171 270.5 213.861 270.38C217.551 270.26 221.221 270.17 224.871 270.14C228.521 270.11 232.141 270.14 235.761 270.23C239.381 270.32 242.981 270.47 246.591 270.69C250.201 270.91 253.811 271.2 257.421 271.57C261.041 271.94 264.671 272.39 268.321 272.92C271.971 273.46 275.641 274.08 279.351 274.79C283.051 275.51 286.791 276.32 290.571 277.23C294.351 278.14 298.171 279.16 302.041 280.28C305.911 281.41 309.841 282.64 313.821 284C317.811 285.35 321.861 286.83 325.981 288.43C329.771 289.9 333.351 291.28 336.751 292.58C340.151 293.88 343.361 295.09 346.401 296.22C349.441 297.35 352.311 298.41 355.031 299.38C357.751 300.36 360.321 301.27 362.761 302.1C365.201 302.93 367.501 303.71 369.691 304.41C371.881 305.12 373.961 305.76 375.941 306.35C377.921 306.94 379.811 307.47 381.621 307.94C383.431 308.42 385.161 308.84 386.831 309.22C388.501 309.6 390.121 309.93 391.691 310.23C393.261 310.52 394.801 310.77 396.311 310.99C397.821 311.21 399.311 311.39 400.791 311.54C402.271 311.69 403.761 311.81 405.251 311.91C406.751 312.01 408.261 312.08 409.801 312.13C411.341 312.18 412.921 312.22 414.551 312.24C416.181 312.26 417.861 312.27 419.601 312.26C421.341 312.25 423.171 312.25 425.071 312.24C430.251 312.21 435.151 311.63 439.741 310.55C444.331 309.48 448.621 307.91 452.601 305.89C456.581 303.87 460.241 301.41 463.581 298.55C466.921 295.69 469.931 292.43 472.601 288.81C475.271 285.2 477.611 281.23 479.601 276.97C481.591 272.7 483.221 268.14 484.501 263.31C485.781 258.49 486.691 253.41 487.231 248.13C487.771 242.85 487.941 237.36 487.731 231.71C487.511 226.06 486.911 220.26 485.921 214.34C484.921 208.42 483.531 202.4 481.731 196.31C479.931 190.22 477.721 184.07 475.091 177.91C472.461 171.75 469.411 165.57 465.931 159.43C462.451 153.29 458.531 147.18 454.171 141.15C449.811 135.12 445.011 129.18 439.751 123.37C434.491 117.56 428.781 111.88 422.591 106.38C416.411 100.88 409.761 95.56 402.631 90.46Z" fill="#3479E9"/>
<path d="M285.63 293.8C286.22 294.09 286.79 294.41 287.36 294.74C287.93 295.07 288.48 295.44 289.02 295.83C289.56 296.21 290.09 296.62 290.6 297.05C291.11 297.48 291.61 297.92 292.09 298.38C292.57 298.84 293.03 299.32 293.47 299.82C293.91 300.32 294.33 300.83 294.74 301.36C295.14 301.89 295.52 302.43 295.88 302.98C296.24 303.53 296.57 304.1 296.88 304.67C297.19 305.25 297.47 305.83 297.73 306.42C297.99 307.01 298.21 307.62 298.41 308.22C298.61 308.83 298.78 309.44 298.92 310.06C299.06 310.68 299.17 311.3 299.24 311.93C299.32 312.56 299.36 313.18 299.37 313.81C299.37 314.44 299.35 315.07 299.29 315.7C299.23 316.33 299.12 316.96 298.98 317.58C298.84 318.2 298.66 318.82 298.44 319.44C298.19 320.13 297.91 320.79 297.59 321.42C297.27 322.05 296.92 322.65 296.53 323.23C296.14 323.81 295.72 324.35 295.27 324.88C294.82 325.4 294.34 325.9 293.84 326.37C293.34 326.84 292.8 327.29 292.25 327.71C291.69 328.13 291.11 328.53 290.51 328.91C289.91 329.29 289.29 329.64 288.65 329.97C288.01 330.3 287.35 330.61 286.68 330.9C286.01 331.19 285.32 331.46 284.62 331.71C283.92 331.96 283.21 332.19 282.48 332.4C281.76 332.61 281.03 332.81 280.29 332.98C279.55 333.16 278.81 333.31 278.06 333.46C277.31 333.6 276.56 333.73 275.81 333.84C275.06 333.95 274.3 334.05 273.55 334.13C272.8 334.21 272.05 334.28 271.31 334.33C270.57 334.38 269.83 334.43 269.1 334.45C268.32 334.48 267.27 334.47 266 334.42C264.73 334.37 263.25 334.27 261.59 334.13C259.93 333.99 258.09 333.8 256.12 333.57C254.15 333.34 252.05 333.06 249.85 332.73C247.65 332.4 245.37 332.03 243.04 331.61C240.71 331.19 238.32 330.71 235.94 330.19C233.55 329.67 231.16 329.09 228.8 328.46C226.44 327.83 224.13 327.15 221.89 326.41C219.65 325.67 217.49 324.88 215.45 324.04C213.41 323.19 211.5 322.29 209.75 321.33C208 320.37 206.41 319.35 205.04 318.27C203.66 317.19 202.49 316.05 201.57 314.85C200.65 313.65 199.98 312.39 199.6 311.06C199.22 309.73 199.14 308.35 199.39 306.9C199.64 305.45 200.23 303.93 201.19 302.35C202.15 300.77 203.5 299.12 205.26 297.4C206.04 296.64 206.98 295.94 208.07 295.29C209.16 294.64 210.39 294.04 211.74 293.49C213.1 292.94 214.57 292.44 216.16 291.99C217.74 291.54 219.43 291.14 221.2 290.78C222.97 290.42 224.82 290.11 226.74 289.85C228.66 289.58 230.63 289.36 232.65 289.18C234.67 289 236.73 288.86 238.82 288.75C240.91 288.65 243.01 288.58 245.12 288.56C247.23 288.53 249.34 288.54 251.43 288.59C253.52 288.63 255.6 288.71 257.63 288.82C259.66 288.93 261.66 289.07 263.6 289.25C265.54 289.42 267.41 289.62 269.21 289.85C271.01 290.08 272.72 290.34 274.34 290.62C275.96 290.9 277.47 291.21 278.87 291.54C280.27 291.87 281.54 292.22 282.68 292.6C283.82 292.97 284.81 293.37 285.64 293.78L285.63 293.8Z" fill="#3479E9"/>
<path d="M378.69 53.2601C379.18 53.0801 379.66 52.8701 380.13 52.6501C380.6 52.4201 381.06 52.1701 381.51 51.9001C381.96 51.6301 382.4 51.3401 382.82 51.0201C383.24 50.7101 383.66 50.3801 384.05 50.0301C384.45 49.6801 384.83 49.3201 385.19 48.9401C385.56 48.5601 385.9 48.1601 386.24 47.7501C386.57 47.3401 386.88 46.9201 387.18 46.4801C387.47 46.0501 387.75 45.6001 388 45.1401C388.25 44.6801 388.49 44.2201 388.7 43.7501C388.91 43.2801 389.1 42.8001 389.26 42.3101C389.42 41.8201 389.56 41.3301 389.68 40.8301C389.79 40.3301 389.88 39.8301 389.94 39.3301C390 38.8301 390.04 38.3201 390.04 37.8201C390.04 37.3201 390.02 36.8101 389.97 36.3001C389.92 35.8001 389.83 35.2901 389.72 34.7901C389.61 34.2901 389.46 33.7901 389.28 33.3001C389.11 32.8401 388.92 32.4001 388.71 31.9701C388.5 31.5401 388.27 31.1301 388.02 30.7201C387.77 30.3201 387.5 29.9301 387.21 29.5601C386.92 29.1901 386.62 28.8301 386.3 28.4801C385.98 28.1301 385.64 27.8001 385.29 27.4801C384.94 27.1601 384.58 26.8501 384.2 26.5501C383.82 26.2501 383.43 25.9701 383.03 25.6901C382.63 25.4201 382.22 25.1501 381.8 24.9001C381.38 24.6501 380.95 24.4101 380.51 24.1701C380.07 23.9401 379.62 23.7201 379.17 23.5001C378.72 23.2801 378.26 23.0801 377.79 22.8901C377.32 22.7001 376.86 22.5101 376.38 22.3301C375.91 22.1501 375.43 21.9801 374.95 21.8201C374.47 21.6601 373.99 21.5001 373.51 21.3601C373.03 21.2101 372.55 21.0701 372.07 20.9401C371.59 20.8101 371.11 20.6801 370.64 20.5601C369.87 20.3601 369.03 20.1401 368.15 19.9101C367.27 19.6701 366.34 19.4201 365.37 19.1701C364.4 18.9201 363.4 18.6501 362.38 18.3901C361.35 18.1301 360.3 17.8701 359.24 17.6201C358.18 17.3701 357.1 17.1401 356.03 16.9201C354.96 16.7001 353.88 16.5101 352.82 16.3401C351.76 16.1701 350.71 16.0301 349.68 15.9201C348.65 15.8201 347.65 15.7501 346.68 15.7201C345.71 15.7001 344.78 15.7201 343.89 15.8001C343 15.8801 342.17 16.0101 341.39 16.2001C340.61 16.3901 339.89 16.6501 339.25 16.9701C338.6 17.3001 338.03 17.6901 337.54 18.1701C337.05 18.6501 336.64 19.2001 336.33 19.8501C336.02 20.5001 335.8 21.2301 335.69 22.0501C335.58 22.8801 335.58 23.8001 335.69 24.8301C335.81 25.8601 336.04 27.0001 336.41 28.2501C336.69 29.1901 337.04 30.1401 337.45 31.0801C337.86 32.0201 338.34 32.9601 338.88 33.8901C339.42 34.8201 340.01 35.7401 340.66 36.6401C341.31 37.5501 342.01 38.4401 342.75 39.3101C343.49 40.1801 344.29 41.0301 345.12 41.8601C345.95 42.6901 346.82 43.4901 347.73 44.2701C348.64 45.0501 349.57 45.7901 350.54 46.5001C351.5 47.2101 352.5 47.8801 353.51 48.5201C354.52 49.1501 355.56 49.7501 356.61 50.2901C357.66 50.8401 358.72 51.3401 359.8 51.7901C360.87 52.2401 361.95 52.6401 363.04 52.9801C364.12 53.3201 365.21 53.6101 366.29 53.8401C367.37 54.0701 368.45 54.2301 369.52 54.3301C370.59 54.4301 371.65 54.4601 372.69 54.4201C373.73 54.3801 374.76 54.2601 375.76 54.0701C376.76 53.8801 377.75 53.6101 378.7 53.2601H378.69Z" fill="#3479E9"/>
</svg>
